<svg width="282" height="282" viewBox="0 0 282 282" fill="none" xmlns="http://www.w3.org/2000/svg">
<g filter="url(#filter0_d_300_333)">
<path d="M236.311 153.538L236.512 154.133L236.733 155.091L236.828 156.049V218.494C236.828 220.234 236.196 221.914 235.051 223.224C233.905 224.533 232.324 225.383 230.599 225.615L229.641 225.682H52.3589C50.622 225.682 48.9439 225.053 47.635 223.911C46.326 222.769 45.4747 221.192 45.2385 219.472L45.1714 218.494V156.203L45.1906 155.704L45.2864 154.88C45.3837 154.377 45.5347 153.885 45.7368 153.414L72.1868 95.7317C72.6857 94.6413 73.4495 93.693 74.4086 92.9733C75.3677 92.2535 76.4917 91.7852 77.6781 91.6109L78.7131 91.5438L103.055 91.5342L95.4839 104.663L94.8418 105.909H83.3131L63.5522 149.015H218.342L198.917 107.366L207.178 93.0196C207.82 93.4988 208.376 94.1026 208.826 94.783L209.334 95.6934L236.311 153.538ZM154.086 34.5517L154.968 34.983L204.686 63.7617C207.829 65.5826 209.075 69.4255 207.743 72.703L207.312 73.5847L180.411 120.265H191.317C193.151 120.246 194.923 120.93 196.27 122.175C197.616 123.42 198.436 125.133 198.561 126.963C198.686 128.792 198.107 130.601 196.942 132.017C195.777 133.434 194.114 134.352 192.295 134.583L191.317 134.65L172.131 134.64V134.669H133.041L133.012 134.64H90.6922C88.8825 134.623 87.1459 133.924 85.8291 132.683C84.5123 131.441 83.7122 129.749 83.5888 127.943C83.4654 126.138 84.0276 124.352 85.1632 122.943C86.2988 121.534 87.9242 120.605 89.7147 120.342L90.6922 120.275L108.163 120.265L106.418 119.259C104.919 118.385 103.785 117 103.225 115.357C102.666 113.715 102.717 111.925 103.371 110.318L103.793 109.436L145.164 37.5992C146.985 34.4463 150.818 33.1909 154.086 34.5326V34.5517ZM153.99 51.0351L119.816 110.394L136.855 120.265H163.851L191.308 72.6071L154.009 51.0159L153.99 51.0351Z" fill="white"/>
</g>
<defs>
<filter id="filter0_d_300_333" x="0.171387" y="0" width="281.657" height="281.682" filterUnits="userSpaceOnUse" color-interpolation-filters="sRGB">
<feFlood flood-opacity="0" result="BackgroundImageFix"/>
<feColorMatrix in="SourceAlpha" type="matrix" values="0 0 0 0 0 0 0 0 0 0 0 0 0 0 0 0 0 0 127 0" result="hardAlpha"/>
<feOffset dy="11"/>
<feGaussianBlur stdDeviation="22.5"/>
<feComposite in2="hardAlpha" operator="out"/>
<feColorMatrix type="matrix" values="0 0 0 0 0.901961 0 0 0 0 0.882353 0 0 0 0 0.301961 0 0 0 1 0"/>
<feBlend mode="normal" in2="BackgroundImageFix" result="effect1_dropShadow_300_333"/>
<feBlend mode="normal" in="SourceGraphic" in2="effect1_dropShadow_300_333" result="shape"/>
</filter>
</defs>
</svg>
