<svg width="1440" height="405" viewBox="0 0 1440 405" fill="none" xmlns="http://www.w3.org/2000/svg">
<path d="M23.7961 181.643C33.0898 172.009 34.8162 173.567 37.9659 181.407C41.1273 189.352 37.1275 197.266 46.1892 194.045C55.2391 190.72 62.6206 184.233 62.6206 184.233C62.6206 184.233 55.9927 168.813 63.1558 173.097C73.3955 179.277 77.0922 176.085 74.9479 185.646C72.6863 195.223 60.1731 198.516 72.6863 195.223C85.1877 191.825 83.4613 190.267 85.5489 185.5C95.5532 163.109 95.5532 163.109 95.5532 163.109C95.5532 163.109 91.9844 163.199 102.05 174.188C112.116 185.178 106.996 182.089 112.116 185.178C107.112 178.882 117.236 188.268 112.116 185.178C117.12 191.475 123.136 177.103 123.136 177.103L137.492 172.162C137.492 172.162 128.442 175.487 137.072 180.092C145.703 184.696 140.827 175.297 145.703 184.696C150.591 194.199 144.749 203.761 144.749 203.761C144.749 203.761 153.088 213.192 160.295 211.515C167.503 209.838 166.673 190.817 180.725 190.599C194.895 190.363 195.081 185.658 202.346 182.377C209.612 179.097 225.333 182.041 229.379 172.419C233.425 162.797 231.698 161.238 242.125 165.903C252.552 170.567 241.287 181.761 252.552 170.567C263.688 159.285 255.71 143.528 263.688 159.285C271.784 175.025 261.311 172.069 271.784 175.025C282.269 178.085 277.684 163.859 286.675 158.948C295.783 154.019 299.537 149.225 302.699 157.169C305.86 165.114 308.932 155.314 313.184 160.23C319.914 168.085 325.278 164.866 330.817 160.027C336.356 155.188 333.136 148.847 338.559 147.214C343.982 145.581 350.468 156.556 341.302 163.088C332.136 169.62 332.543 161.586 332.136 169.62C341.907 150.453 331.716 177.549 332.136 169.62C322.365 188.786 310.095 185.77 322.365 188.786C334.634 191.802 329.746 182.299 334.634 191.802C339.522 201.306 337.492 204.469 346.961 193.215C356.313 181.978 356.069 188.287 356.313 181.978C349.106 183.655 356.674 175.652 356.313 181.978C363.521 180.301 375.603 184.832 375.603 184.832C375.603 184.832 380.665 189.526 386.262 183.083C391.859 176.64 392.336 167.108 391.859 176.64C391.382 186.173 380.897 183.112 387.511 194.174C394.008 205.253 378.275 202.205 394.008 205.253C409.729 208.197 440.877 187.118 446.532 179.072C452.187 171.026 454.041 169.483 460.888 174.131C467.734 178.78 467.676 180.383 476.842 173.852C486.008 167.32 472.257 159.626 486.008 167.32C499.77 175.118 497.624 181.489 507.024 171.733C516.318 162.099 504.34 154.256 516.318 162.099C528.295 169.942 529.777 174.62 537.1 169.736C544.424 164.852 541.332 155.409 546.452 158.499C551.572 161.589 544.248 166.473 549.31 171.166C554.372 175.859 561.812 167.768 570.873 164.548C579.935 161.327 581.416 166.005 590.291 164.3C599.165 162.596 592.552 154.723 599.642 153.063C606.85 151.386 608.04 160.891 618.583 162.348C629.126 163.805 635.561 141.504 639.304 136.605C643.059 131.81 643.453 120.482 650.382 126.926C657.17 133.178 663.442 140.143 671.049 137.77C681.766 134.417 693.019 123.119 697.79 132.639C702.678 142.142 704.345 142.115 713.453 137.186C722.56 132.257 722.688 129.155 733.289 129.009C743.89 128.863 740.613 124.125 747.703 122.465C754.91 120.788 760.507 114.345 759.797 127.102C759.203 139.841 766.721 121.85 770.456 125.352C777.244 131.604 785.614 129.653 789.931 123.501C795.586 115.455 795.47 118.662 796.835 126.547C798.201 134.431 796.242 139.286 805.117 137.581C813.991 135.876 823.576 121.415 813.991 135.876C804.406 150.337 788.743 145.79 804.406 150.337C820.069 154.885 821.969 151.633 827.101 154.828C832.221 157.918 821.504 161.27 828.35 165.919C835.196 170.568 839.37 157.844 849.843 160.8C860.328 163.861 869.68 152.623 874.858 154.11C880.036 155.596 876.293 160.496 881.413 163.585C886.533 166.675 895.291 168.177 895.291 168.177C895.291 168.177 906.008 164.824 905.718 172.841C905.299 180.77 919.597 177.433 925.194 170.99C930.791 164.548 935.911 167.638 925.787 158.251C915.663 148.865 902.739 125.208 906.726 113.999C910.83 102.774 905.233 109.217 911.614 123.503C917.983 137.684 924.294 153.469 932.994 156.574C941.695 159.679 947.35 151.633 947.35 151.633C947.35 151.633 943.781 151.722 936.688 118.399C929.477 85.0928 906.08 58.4798 906.08 58.4798C906.08 58.4798 911.677 52.0371 916.623 59.9371C921.568 67.8371 941.397 94.5393 945.62 115.091C949.844 135.643 951.221 143.632 956.458 146.705C961.578 149.795 970.755 143.367 975.456 154.386C980.157 165.405 978.071 173.362 990.584 170.069C1003.09 166.672 1017.44 161.731 1018.16 149.08C1018.76 136.34 1029.13 142.608 1024.35 129.898C1019.71 117.275 1012.03 128.485 1003.21 128.586C994.393 128.688 996.956 111.199 1005.66 114.304C1014.36 117.409 1025.79 101.3 1015.18 101.446C1004.58 101.592 1002.21 114.376 1004.58 101.592C1006.96 88.8082 996.302 90.5577 1006.96 88.8083C1017.62 87.0589 1021.63 83.5029 1014.47 79.2189C1004.23 73.0391 1011.61 66.5518 1011.86 60.2429C1012.22 53.9171 1014.06 52.2691 1017.93 44.2677C1021.92 36.2493 1018.83 26.8059 1026.15 21.922C1033.47 17.0381 1047.77 13.7007 1040.09 24.9105C1032.4 36.1202 1037.88 32.8842 1032.17 42.5337C1026.34 52.2 1021.15 50.6089 1022.53 58.5981C1023.89 66.4827 1013.48 61.9233 1023.89 66.4827C1021.21 49.0056 1034.32 71.1468 1023.89 66.4827C1026.58 83.9599 1017.99 77.6478 1026.58 83.9599C1035.15 90.1673 1055.04 80.3872 1043.97 90.0659C1032.89 99.7445 1038.9 85.3726 1032.89 99.7445C1026.87 114.116 1032.05 115.603 1035.44 120.324C1038.72 125.062 1050.74 131.197 1041.81 134.505C1032.76 137.83 1029.24 139.401 1035.91 145.67C1042.7 151.922 1053.01 156.603 1060.33 151.719C1067.66 146.835 1066.29 138.951 1068.73 124.563C1071.17 110.281 1049.9 112.072 1055.57 104.13C1061.23 96.0842 1063.01 96.0396 1070.16 95.9658C1077.19 95.9089 1076.06 84.8007 1069.27 78.5487C1062.48 72.2966 1064.15 75.4588 1073.32 68.9269C1082.48 62.395 1083.74 73.5909 1082.48 62.395C1081.23 51.3036 1083.13 48.0523 1081.65 43.3745C1080.16 38.592 1085.7 33.7527 1089.7 22.6491C1093.8 11.424 1093.99 6.71845 1103.1 1.78994C1112.2 -3.13857 1122.45 3.14588 1109.59 12.8691C1096.73 22.5923 1107.39 20.8428 1099.88 30.4322C1092.37 40.0216 1083.2 46.5535 1089.82 54.4259C1096.55 62.2813 1107.21 60.5319 1101.38 70.1982C1095.55 79.8646 1100.54 86.0566 1088.15 86.2472C1075.77 86.4379 1068.79 84.8913 1078.92 94.2779C1089.04 103.664 1098.75 86.1012 1089.04 103.664C1079.33 121.228 1069.33 108.739 1079.33 121.228C1089.33 133.821 1094.34 140.117 1094.34 140.117C1094.34 140.117 1102.91 146.325 1108.16 146.313C1113.51 146.179 1133.53 133.297 1149.07 140.946C1164.62 148.7 1173.31 151.701 1184.02 148.348C1194.74 144.995 1198.32 145.01 1226.85 139.834C1255.37 134.658 1269.61 132.924 1276.69 131.16C1283.77 129.395 1310.28 130.677 1347.5 128.606C1384.73 126.535 1418.85 114.917 1443.39 117.759C1467.92 120.602 1508.06 132.68 1547.43 121.049C1586.91 109.401 1604.59 107.49 1620.5 108.918C1636.28 110.259 1646.88 110.113 1646.88 110.113L1687.5 109.573C1687.5 109.573 1770.28 149.742 1816.37 145.861C1862.46 141.981 1888.01 162.328 1888.01 162.328L1915.83 277.944L1402.53 404.266C1402.53 404.266 -28.6186 406.866 -20.9919 397.26C-13.4826 387.67 -8.66255 185.791 -8.66255 185.791L23.7961 181.643Z" fill="#2C1C0D"/>
</svg>
