<svg width="32" height="26" viewBox="0 0 32 26" fill="none" xmlns="http://www.w3.org/2000/svg">
<path d="M16 20.9625L13.2024 23.3512C11.9657 24.4069 10.2886 25 8.53983 25C6.79109 25 5.11395 24.4069 3.87724 23.3512C2.64085 22.2952 1.94629 20.8632 1.94629 19.37C1.94629 17.8768 2.64085 16.4447 3.87724 15.3888L9.47235 10.6113C10.7091 9.55556 12.3862 8.96249 14.1349 8.96249C15.8837 8.96249 17.5608 9.55556 18.7975 10.6113" stroke="white" stroke-width="2" stroke-linecap="round"/>
<path d="M15.9997 5.03752L18.7973 2.64878C20.034 1.59307 21.7111 1 23.4599 1C25.2086 1 26.8857 1.59307 28.1224 2.64878C29.3588 3.70476 30.0534 5.13682 30.0534 6.63001C30.0534 8.12321 29.3588 9.55527 28.1224 10.6113L22.5273 15.3887C21.2906 16.4444 19.6135 17.0375 17.8647 17.0375C16.116 17.0375 14.4389 16.4444 13.2021 15.3887" stroke="white" stroke-width="2" stroke-linecap="round"/>
</svg>
